<svg width="28" height="28" viewBox="0 0 28 28" fill="none" xmlns="http://www.w3.org/2000/svg">
<path d="M12.6875 13.125C12.6875 12.8654 12.7645 12.6117 12.9087 12.3958C13.0529 12.18 13.2579 12.0117 13.4977 11.9124C13.7376 11.8131 14.0015 11.7871 14.2561 11.8377C14.5107 11.8884 14.7445 12.0134 14.9281 12.1969C15.1116 12.3805 15.2366 12.6143 15.2873 12.8689C15.3379 13.1235 15.3119 13.3874 15.2126 13.6273C15.1133 13.8671 14.945 14.0721 14.7292 14.2163C14.5133 14.3605 14.2596 14.4375 14 14.4375C13.6519 14.4375 13.3181 14.2992 13.0719 14.0531C12.8258 13.8069 12.6875 13.4731 12.6875 13.125ZM18.8125 14.4375C19.0721 14.4375 19.3258 14.3605 19.5417 14.2163C19.7575 14.0721 19.9258 13.8671 20.0251 13.6273C20.1244 13.3874 20.1504 13.1235 20.0998 12.8689C20.0491 12.6143 19.9241 12.3805 19.7406 12.1969C19.557 12.0134 19.3232 11.8884 19.0686 11.8377C18.814 11.7871 18.5501 11.8131 18.3102 11.9124C18.0704 12.0117 17.8654 12.18 17.7212 12.3958C17.577 12.6117 17.5 12.8654 17.5 13.125C17.5 13.4731 17.6383 13.8069 17.8844 14.0531C18.1306 14.2992 18.4644 14.4375 18.8125 14.4375ZM25.375 6.125V20.125C25.375 20.5891 25.1906 21.0342 24.8624 21.3624C24.5342 21.6906 24.0891 21.875 23.625 21.875H17.1205L15.4973 24.5317C15.3411 24.7898 15.1208 25.0031 14.8579 25.1509C14.5949 25.2987 14.2982 25.376 13.9965 25.3754C13.6948 25.3747 13.3985 25.2961 13.1362 25.1471C12.8738 24.9981 12.6545 24.7839 12.4994 24.5252L10.8795 21.875H4.375C3.91087 21.875 3.46575 21.6906 3.13756 21.3624C2.80937 21.0342 2.625 20.5891 2.625 20.125V6.125C2.625 5.66087 2.80937 5.21575 3.13756 4.88756C3.46575 4.55937 3.91087 4.375 4.375 4.375H23.625C24.0891 4.375 24.5342 4.55937 24.8624 4.88756C25.1906 5.21575 25.375 5.66087 25.375 6.125ZM23.625 6.125H4.375V20.125H10.8795C11.1808 20.1258 11.4768 20.204 11.7392 20.352C12.0016 20.5 12.2215 20.713 12.378 20.9705L14 23.625L15.6209 20.965C15.7781 20.7083 15.9985 20.4963 16.261 20.3492C16.5236 20.2021 16.8195 20.1249 17.1205 20.125H23.625V6.125ZM9.1875 14.4375C9.44709 14.4375 9.70085 14.3605 9.91669 14.2163C10.1325 14.0721 10.3008 13.8671 10.4001 13.6273C10.4994 13.3874 10.5254 13.1235 10.4748 12.8689C10.4241 12.6143 10.2991 12.3805 10.1156 12.1969C9.93202 12.0134 9.69816 11.8884 9.44356 11.8377C9.18896 11.7871 8.92506 11.8131 8.68523 11.9124C8.4454 12.0117 8.24042 12.18 8.0962 12.3958C7.95198 12.6117 7.875 12.8654 7.875 13.125C7.875 13.4731 8.01328 13.8069 8.25942 14.0531C8.50556 14.2992 8.8394 14.4375 9.1875 14.4375Z" fill="#28292B"/>
</svg>
