<svg xmlns="http://www.w3.org/2000/svg" width="22" height="25" viewBox="0 0 22 25" fill="none">
  <g clip-path="url(#clip0_490_11)">
    <path d="M11 0C10.1308 0 9.42857 0.698242 9.42857 1.5625V2.5C5.84375 3.22266 3.14286 6.37695 3.14286 10.1562V11.3965C3.14286 13.6133 2.3817 15.7666 0.991965 17.4951L0.260268 18.4082C-0.024553 18.7598 -0.0785709 19.2432 0.117858 19.6484C0.314286 20.0537 0.726786 20.3125 1.17857 20.3125H20.8214C21.2732 20.3125 21.6857 20.0537 21.8821 19.6484C22.0786 19.2432 22.0246 18.7598 21.7397 18.4082L21.008 17.5C19.6183 15.7666 18.8571 13.6133 18.8571 11.3965V10.1562C18.8571 6.37695 16.1563 3.22266 12.5714 2.5V1.5625C12.5714 0.698242 11.8692 0 11 0ZM11 4.6875C14.0397 4.6875 16.5 7.13379 16.5 10.1562V11.3965C16.5 13.7354 17.1826 16.0156 18.4496 17.9688H3.55045C4.81741 16.0156 5.5 13.7354 5.5 11.3965V10.1562C5.5 7.13379 7.96027 4.6875 11 4.6875ZM14.1429 21.875H7.85714C7.85714 22.7051 8.18616 23.501 8.77545 24.0869C9.36473 24.6729 10.1652 25 11 25C11.8348 25 12.6353 24.6729 13.2246 24.0869C13.8138 23.501 14.1429 22.7051 14.1429 21.875Z" fill="#E84323"/>
  </g>
  <defs>
    <clipPath id="clip0_490_11">
      <rect width="22" height="25" fill="white"/>
    </clipPath>
  </defs>
</svg>