<svg width="28" height="28" viewBox="0 0 28 28" fill="none" xmlns="http://www.w3.org/2000/svg">
<path d="M23.3333 11.6667C23.3333 11.3573 23.2104 11.0605 22.9916 10.8417C22.7728 10.6229 22.4761 10.5 22.1666 10.5C21.8572 10.5 21.5605 10.6229 21.3417 10.8417C21.1229 11.0605 21 11.3573 21 11.6667H23.3333ZM6.99997 11.6667C6.99997 11.3573 6.87706 11.0605 6.65826 10.8417C6.43947 10.6229 6.14273 10.5 5.83331 10.5C5.52389 10.5 5.22714 10.6229 5.00835 10.8417C4.78956 11.0605 4.66664 11.3573 4.66664 11.6667H6.99997ZM23.6751 14.8248C23.8952 15.0374 24.1899 15.1549 24.4958 15.1523C24.8017 15.1496 25.0943 15.0269 25.3106 14.8106C25.5269 14.5943 25.6496 14.3017 25.6523 13.9958C25.6549 13.6899 25.5373 13.3952 25.3248 13.1752L23.6751 14.8248ZM14 3.50001L14.8248 2.67517C14.606 2.45646 14.3093 2.33359 14 2.33359C13.6906 2.33359 13.3939 2.45646 13.1751 2.67517L14 3.50001ZM2.67514 13.1752C2.56371 13.2828 2.47483 13.4115 2.41369 13.5539C2.35254 13.6962 2.32036 13.8493 2.31901 14.0042C2.31767 14.1591 2.34719 14.3127 2.40585 14.4561C2.46451 14.5995 2.55114 14.7298 2.66068 14.8393C2.77022 14.9488 2.90048 15.0355 3.04386 15.0941C3.18724 15.1528 3.34087 15.1823 3.49577 15.181C3.65068 15.1796 3.80377 15.1474 3.94611 15.0863C4.08845 15.0251 4.21718 14.9363 4.32481 14.8248L2.67514 13.1752ZM8.16664 25.6667H19.8333V23.3333H8.16664V25.6667ZM23.3333 22.1667V11.6667H21V22.1667H23.3333ZM6.99997 22.1667V11.6667H4.66664V22.1667H6.99997ZM25.3248 13.1752L14.8248 2.67517L13.1751 4.32484L23.6751 14.8248L25.3248 13.1752ZM13.1751 2.67517L2.67514 13.1752L4.32481 14.8248L14.8248 4.32484L13.1751 2.67517ZM19.8333 25.6667C20.7616 25.6667 21.6518 25.2979 22.3082 24.6415C22.9646 23.9852 23.3333 23.0949 23.3333 22.1667H21C21 22.4761 20.8771 22.7728 20.6583 22.9916C20.4395 23.2104 20.1427 23.3333 19.8333 23.3333V25.6667ZM8.16664 23.3333C7.85722 23.3333 7.56047 23.2104 7.34168 22.9916C7.12289 22.7728 6.99997 22.4761 6.99997 22.1667H4.66664C4.66664 23.0949 5.03539 23.9852 5.69177 24.6415C6.34814 25.2979 7.23838 25.6667 8.16664 25.6667V23.3333Z" fill="#28292B"/>
</svg>
