<svg xmlns="http://www.w3.org/2000/svg" width="22" height="22" viewBox="0 0 22 22" fill="none">
<path d="M19.8667 21.5L12.5167 14.15C11.9333 14.6167 11.2625 14.9861 10.5042 15.2583C9.74583 15.5306 8.93889 15.6667 8.08333 15.6667C5.96389 15.6667 4.17033 14.9324 2.70267 13.464C1.235 11.9956 0.500778 10.202 0.5 8.08333C0.5 5.96389 1.23422 4.17033 2.70267 2.70267C4.17111 1.235 5.96467 0.500778 8.08333 0.5C10.2028 0.5 11.9963 1.23422 13.464 2.70267C14.9317 4.17111 15.6659 5.96467 15.6667 8.08333C15.6667 8.93889 15.5306 9.74583 15.2583 10.5042C14.9861 11.2625 14.6167 11.9333 14.15 12.5167L21.5 19.8667L19.8667 21.5ZM8.08333 13.3333C9.54167 13.3333 10.7814 12.8227 11.8027 11.8015C12.8239 10.7803 13.3341 9.54089 13.3333 8.08333C13.3333 6.625 12.8227 5.38522 11.8015 4.364C10.7803 3.34278 9.54089 2.83256 8.08333 2.83333C6.625 2.83333 5.38522 3.34394 4.364 4.36517C3.34278 5.38639 2.83256 6.62578 2.83333 8.08333C2.83333 9.54167 3.34394 10.7814 4.36517 11.8027C5.38639 12.8239 6.62578 13.3341 8.08333 13.3333Z" fill="#E84323"/>
</svg>